<?xml version="1.0" standalone="no"?>
<!DOCTYPE svg PUBLIC "-//W3C//DTD SVG 20010904//EN"
 "http://www.w3.org/TR/2001/REC-SVG-20010904/DTD/svg10.dtd">
<svg version="1.0" xmlns="http://www.w3.org/2000/svg"
 width="400.000000pt" height="400.000000pt" viewBox="0 0 400.000000 400.000000"
 preserveAspectRatio="xMidYMid meet">

<g transform="translate(0.000000,400.000000) scale(0.100000,-0.100000)"
fill="#000000" stroke="none">
<path d="M577 3993 c18 -2 50 -2 70 0 21 2 7 4 -32 4 -38 0 -55 -2 -38 -4z"/>
<path d="M769 3993 c-23 -6 -101 -157 -122 -238 -19 -71 -16 -155 4 -155 6 0
9 -8 8 -17 -3 -22 23 -109 45 -151 20 -39 21 -39 -9 -46 -38 -10 -75 2 -68 22
6 14 4 14 -15 0 -16 -11 -33 -13 -62 -8 -63 11 -87 33 -93 82 -7 52 -3 182 7
223 6 23 5 26 -3 14 -16 -25 -41 -138 -41 -186 0 -23 -4 -44 -9 -48 -11 -6
-41 21 -41 38 0 7 -5 5 -10 -4 -6 -10 -6 -34 -1 -60 5 -24 9 -38 10 -31 2 24
20 12 26 -19 4 -17 27 -77 52 -133 62 -140 60 -134 34 -111 -13 11 -36 47 -51
80 -16 33 -29 53 -30 44 0 -9 16 -49 36 -89 38 -77 40 -108 9 -127 -19 -11
-102 -8 -135 4 -8 4 -17 7 -20 7 -20 4 -81 62 -121 115 -27 35 -49 57 -49 50
0 -26 63 -116 129 -184 72 -76 70 -86 -16 -83 -29 0 -58 -4 -66 -10 -8 -7 -17
-9 -20 -5 -4 3 -7 2 -7 -4 0 -6 15 -11 32 -11 219 -6 238 -7 233 -21 -4 -10 1
-12 22 -6 16 4 42 9 58 12 17 2 46 8 65 14 46 12 56 11 72 -4 73 -69 205 -167
226 -167 7 0 29 -11 50 -24 32 -20 41 -33 55 -86 10 -35 24 -72 32 -84 35 -49
8 -81 -59 -71 -25 4 -44 11 -41 15 9 15 -12 20 -38 11 -43 -17 -80 24 -114
124 l-13 40 4 -48 c2 -26 15 -70 28 -97 19 -37 21 -50 11 -50 -11 0 -10 -5 3
-25 16 -24 16 -25 -7 -25 -22 0 -22 0 -3 -14 13 -10 23 -11 32 -4 9 8 11 7 6
-6 -3 -9 -2 -16 4 -16 6 0 13 6 15 13 3 7 6 5 6 -5 1 -11 12 -20 29 -23 15 -3
50 -12 78 -20 28 -8 58 -15 67 -15 9 0 31 -16 49 -35 34 -38 130 -102 188
-126 19 -7 56 -12 83 -11 55 4 59 -6 16 -42 -22 -19 -42 -26 -71 -26 -47 0
-149 25 -193 47 -16 8 -25 10 -19 3 6 -6 37 -24 67 -39 64 -32 66 -43 5 -29
-66 14 -79 4 -25 -21 81 -38 55 -79 -43 -69 -22 2 -40 1 -40 -3 0 -17 58 -29
169 -33 68 -3 126 -7 128 -10 2 -2 -3 -11 -12 -19 -10 -11 -13 -25 -9 -41 6
-25 -55 -255 -82 -308 -9 -17 -10 -29 -4 -33 6 -3 10 1 10 9 0 9 8 24 17 34
20 21 26 36 27 69 1 11 4 19 9 16 7 -4 12 36 8 66 -2 8 3 10 11 5 7 -4 10 -4
6 1 -4 4 -3 13 2 20 5 6 11 33 11 58 1 25 6 44 11 41 14 -9 20 23 9 45 -17 31
4 56 74 92 33 18 79 47 102 65 23 19 45 34 50 34 5 0 17 -16 26 -36 19 -39 13
-62 -23 -87 -14 -10 -21 -27 -22 -52 -1 -40 12 -55 50 -55 15 0 22 -5 19 -12
-2 -7 -18 -13 -35 -13 -18 0 -32 -3 -32 -6 0 -3 -29 -5 -65 -5 -73 2 -81 -11
-19 -32 24 -9 58 -11 89 -8 108 14 97 20 126 -70 49 -151 135 -278 254 -374
47 -38 55 -49 53 -75 -1 -16 -7 -33 -12 -37 -23 -16 6 -19 30 -3 15 9 23 12
20 6 -4 -6 0 -11 9 -11 9 0 13 5 10 10 -3 6 -1 10 5 10 6 0 13 -7 17 -16 3 -9
12 -13 21 -9 10 4 25 -5 39 -22 30 -35 65 -112 56 -126 -3 -6 -1 -7 5 -3 11 7
17 -6 13 -28 -1 -5 2 -12 6 -15 20 -14 53 -80 51 -101 -2 -15 3 -24 15 -26 11
-1 17 2 14 9 -2 7 -14 46 -27 87 -12 41 -31 99 -40 128 -11 32 -14 54 -8 58 5
3 38 3 72 -1 92 -9 396 -7 431 4 55 17 160 79 197 116 20 21 51 70 69 109 31
67 33 78 37 211 2 77 9 145 14 152 5 6 23 15 39 18 16 4 29 11 29 16 0 6 -8 5
-20 -1 -15 -8 -20 -8 -20 2 0 7 24 26 53 42 44 24 49 25 29 6 -13 -12 -21 -24
-19 -27 9 -8 105 62 111 81 4 17 12 18 78 13 40 -3 90 -13 111 -23 33 -16 40
-26 57 -81 34 -110 72 -196 115 -263 51 -79 108 -135 126 -125 7 5 10 4 5 -3
-4 -6 18 -29 51 -54 32 -24 60 -46 63 -49 9 -12 125 -67 153 -73 20 -5 27 -3
27 9 0 9 -8 18 -17 21 -85 28 -195 100 -295 193 -65 60 -108 134 -151 261
-101 295 -74 416 98 459 22 5 64 16 94 25 30 8 86 18 124 22 39 4 79 8 91 9
12 1 29 3 39 4 10 0 17 9 17 21 0 24 -2 24 -150 5 -107 -14 -160 -25 -252 -56
-36 -12 -38 -11 -87 30 -49 41 -65 70 -38 72 6 0 -14 10 -45 23 -63 24 -148
74 -148 87 0 4 15 3 32 -2 18 -5 53 -9 79 -9 64 0 243 27 310 46 51 15 59 15
86 1 25 -14 80 -25 191 -41 15 -2 22 2 22 14 0 13 -13 21 -47 29 -75 19 -133
43 -127 53 3 5 24 22 45 38 32 23 47 27 84 24 l44 -4 1 690 0 690 -1607 -1
c-885 -1 -1615 -3 -1624 -6z m169 -65 c19 -19 14 -126 -9 -214 -11 -43 -22
-96 -24 -117 -2 -33 -25 -79 -25 -51 0 6 -9 20 -20 32 -16 17 -22 41 -27 110
-6 99 1 134 47 205 31 50 39 54 58 35z m2553 -399 c11 -36 10 -41 -11 -64 -13
-14 -27 -22 -31 -18 -10 11 12 134 22 127 5 -3 14 -23 20 -45z m-2686 -47 c-6
-16 -7 -16 -16 1 -6 9 -8 21 -4 26 3 5 1 12 -4 15 -5 3 -7 16 -4 27 5 19 8 17
21 -15 8 -20 11 -44 7 -54z m2774 -146 c8 -20 11 -39 8 -42 -7 -8 -127 27
-127 37 0 5 9 13 20 19 14 8 20 8 20 0 0 -6 10 -2 22 10 29 26 40 22 57 -24z
m-3022 -14 c-37 -4 -57 4 -57 22 0 12 6 12 43 -2 40 -16 41 -17 14 -20z m-12
-51 c-8 -14 34 -18 73 -8 58 15 56 -13 -3 -59 -36 -27 -36 -27 -56 -8 -27 28
-43 84 -23 84 8 0 13 -4 9 -9z m1857 -158 c32 -67 33 -71 35 -211 0 -79 4
-158 7 -176 6 -32 6 -32 -31 -30 -58 3 -101 15 -107 30 -25 65 -11 381 21 479
l16 50 13 -38 c7 -20 28 -67 46 -104z m1123 -2 c89 -20 81 -28 -35 -33 -64 -3
-65 -3 -68 25 -4 32 -3 32 103 8z m285 -30 c0 -6 24 -26 54 -46 57 -38 68 -59
60 -114 -4 -22 -1 -37 8 -42 10 -7 10 -9 1 -9 -7 0 -13 -5 -13 -11 0 -5 5 -7
10 -4 6 3 10 -1 10 -10 0 -9 -4 -13 -10 -10 -5 3 -10 1 -10 -4 0 -6 5 -11 10
-11 17 0 11 -16 -15 -44 -14 -16 -32 -25 -40 -23 -19 8 -63 -15 -68 -34 -3 -9
-26 -31 -51 -49 -42 -28 -50 -31 -75 -21 -65 27 -149 136 -208 269 -48 106
-46 112 28 112 33 0 92 7 130 16 39 9 78 14 88 11 10 -2 23 4 30 14 11 19 61
27 61 10z m-2900 -63 c0 -18 -4 -39 -9 -47 -8 -12 -13 -12 -35 2 -15 10 -27
13 -31 7 -3 -6 -2 -10 3 -10 6 0 12 -6 15 -14 4 -10 -5 -8 -34 7 -42 23 -50
37 -20 37 11 0 23 5 26 10 6 10 61 37 78 39 4 1 7 -14 7 -31z m-160 -48 c0 -5
-2 -10 -4 -10 -3 0 -8 5 -11 10 -3 6 -1 10 4 10 6 0 11 -4 11 -10z m1280 -5
c6 -8 9 -23 5 -36 -5 -13 -3 -19 3 -15 6 3 8 -1 6 -12 -3 -9 -1 -36 4 -60 8
-33 7 -42 -3 -42 -15 0 -21 15 -30 80 -3 25 -8 57 -11 73 -6 29 6 36 26 12z
m-1215 -90 c50 -24 49 -24 43 -31 -6 -6 -94 39 -113 57 -11 11 7 4 70 -26z
m2575 -41 c0 -7 6 -17 14 -21 11 -7 53 -57 110 -133 7 -9 0 -8 -23 6 -36 20
-84 82 -114 148 -15 33 -16 37 -3 27 9 -8 16 -19 16 -27z m-2473 -10 c-3 -3
-12 -4 -19 -1 -8 3 -5 6 6 6 11 1 17 -2 13 -5z m166 -159 c14 -20 15 -28 5
-52 -24 -55 -39 -48 -69 32 -9 22 -14 46 -12 52 6 17 54 -3 76 -32z m2092 -46
c4 -5 17 -15 28 -20 43 -20 122 -69 111 -69 -52 -1 -164 61 -164 91 0 13 18
11 25 -2z m-1255 -149 c0 -19 125 -132 166 -150 24 -11 44 -25 44 -31 0 -6 -7
-6 -20 1 -14 7 -20 7 -20 0 0 -18 -25 -11 -55 17 -28 27 -71 45 -46 20 17 -17
13 -27 -11 -27 -17 0 -19 3 -9 9 11 7 9 10 -8 16 -12 3 -19 11 -16 16 4 5 2 9
-4 9 -6 0 -13 11 -17 25 -5 21 -9 23 -20 14 -8 -7 -17 -10 -20 -7 -2 3 7 13
22 23 15 9 22 20 17 24 -5 3 -15 21 -21 40 -10 29 -10 32 3 21 8 -7 15 -16 15
-20z m1069 -89 c68 -77 73 -86 68 -114 -3 -19 -13 -13 -80 56 -53 53 -77 85
-77 102 0 13 -5 36 -10 52 l-10 28 26 -30 c15 -16 52 -59 83 -94z m-460 67
c18 -31 16 -34 -23 -44 -18 -4 -27 -3 -23 3 4 6 -7 10 -25 11 -17 0 -40 10
-51 21 l-21 20 25 10 c13 6 42 9 64 8 31 -2 42 -8 54 -29z m192 -110 c21 -22
27 -34 18 -37 -12 -4 -59 45 -59 62 0 13 8 8 41 -25z m-1405 -33 c-27 -21 -53
-20 -36 0 7 8 22 15 34 15 21 -1 21 -1 2 -15z m709 -15 c3 -5 1 -10 -4 -10 -6
0 -11 5 -11 10 0 6 2 10 4 10 3 0 8 -4 11 -10z m1375 -40 c0 -5 4 -9 8 -7 11
3 82 -36 82 -45 0 -12 -13 -10 -47 7 -34 17 -72 55 -55 55 7 0 12 -4 12 -10z
m-674 -101 c96 -40 132 -82 140 -161 3 -29 0 -37 -9 -33 -6 4 -2 -2 9 -12 12
-10 25 -35 28 -55 7 -37 6 -38 -23 -38 -18 0 -38 9 -51 22 -11 12 -20 18 -20
14 0 -5 -10 -1 -23 7 -17 11 -28 12 -38 5 -11 -8 -10 -9 4 -4 9 3 17 1 17 -4
0 -5 18 -16 40 -26 22 -10 40 -21 40 -26 0 -14 -47 -9 -60 6 -6 8 -17 13 -24
10 -7 -3 -19 7 -27 22 -12 23 -12 28 0 32 10 3 7 9 -10 18 -19 10 -20 13 -6
14 10 0 17 8 17 21 0 13 -4 18 -12 13 -9 -5 -10 -4 -3 4 8 8 24 8 62 -2 28 -8
55 -11 59 -7 11 8 16 32 6 28 -4 -1 -7 3 -7 8 0 6 3 9 8 8 4 -2 7 1 7 7 0 5
-19 23 -42 40 -24 16 -47 33 -53 38 -22 17 -145 71 -179 78 -10 2 -21 6 -25
10 -15 16 110 -10 175 -37z m-426 21 c0 -5 -11 -10 -25 -10 -14 0 -25 5 -25
10 0 6 11 10 25 10 14 0 25 -4 25 -10z m-566 -12 c-4 -7 -7 -27 -6 -45 2 -18
-2 -33 -8 -33 -5 0 -10 7 -10 15 0 35 -19 11 -30 -37 -10 -46 -9 -65 9 -138
32 -132 87 -288 121 -341 17 -26 51 -64 76 -84 48 -39 61 -35 16 5 -15 14 -40
40 -55 59 l-28 34 24 26 c13 14 29 42 36 61 10 32 9 33 -4 15 -8 -11 -18 -25
-23 -31 -5 -5 -15 -21 -22 -34 -12 -23 -13 -23 -26 -5 -17 24 -18 69 -1 87 7
7 17 24 23 38 6 14 19 44 29 67 10 24 27 45 37 49 10 3 18 10 18 15 0 5 13 9
29 9 85 0 136 -222 92 -403 -12 -47 -12 -63 -2 -79 11 -18 10 -19 -8 -13 -15
5 -21 2 -21 -9 0 -31 -29 -15 -108 59 -95 90 -135 160 -185 325 -68 226 -71
302 -15 366 29 32 58 48 42 22z m294 -27 c22 -19 29 -32 15 -29 -5 0 -15 -2
-25 -6 -29 -13 -83 -3 -86 17 -3 12 3 17 22 17 14 0 26 5 26 10 0 16 23 11 48
-9z m1317 -1 c3 -5 -3 -10 -14 -10 -12 0 -21 5 -21 10 0 6 6 10 14 10 8 0 18
-4 21 -10z m-297 -48 c24 -16 31 -62 8 -62 -25 0 -121 72 -110 83 9 9 77 -5
102 -21z m382 12 c0 -2 -4 -15 -10 -29 -11 -30 -30 -25 -30 8 0 16 6 23 20 23
11 0 20 -1 20 -2z m-1217 -21 c-16 -6 -17 -25 -1 -41 6 -6 13 -22 15 -34 2
-12 9 -26 16 -30 18 -11 -71 -10 -118 2 -65 17 -155 70 -155 91 0 8 71 14 190
16 36 1 59 -1 53 -4z m145 -44 l-3 -24 -13 23 c-7 12 -10 27 -6 33 10 17 26
-6 22 -32z m628 -38 c-8 -13 -46 -15 -46 -2 0 5 -3 24 -6 42 l-6 34 32 -31
c18 -18 29 -37 26 -43z m-1107 -15 c8 -9 8 -16 2 -20 -5 -4 -15 2 -21 11 -10
16 -11 16 -7 -4 4 -17 1 -23 -12 -23 -29 0 -33 13 -9 32 28 21 32 22 47 4z
m174 -49 c-3 -5 3 -8 13 -6 11 1 28 -2 38 -6 13 -6 21 -4 24 4 3 9 7 9 18 0
11 -9 14 -8 14 5 0 12 10 16 43 16 23 0 49 -5 57 -10 10 -6 11 -10 3 -10 -8 0
-5 -8 7 -20 11 -11 24 -20 29 -20 5 0 12 -7 15 -16 3 -8 2 -12 -3 -9 -5 3 -12
1 -16 -5 -4 -6 5 -10 19 -10 14 0 26 -5 26 -11 0 -5 5 -7 10 -4 6 3 10 1 10
-4 0 -6 3 -11 8 -10 19 3 52 -15 52 -28 0 -8 -4 -12 -9 -8 -5 3 -12 1 -16 -4
-3 -6 -12 -8 -20 -4 -11 4 -15 -3 -15 -26 0 -37 17 -41 30 -6 10 25 30 35 30
14 0 -6 6 -9 14 -6 7 3 19 0 25 -6 8 -8 11 -8 11 2 0 7 4 10 9 7 5 -4 12 0 14
6 4 9 8 9 14 3 11 -13 33 -17 33 -6 0 5 -6 11 -12 14 -7 3 -3 4 9 4 12 -1 19
-5 17 -9 -3 -4 2 -8 10 -8 10 0 13 6 9 18 -6 15 -5 15 10 3 11 -8 17 -9 17 -3
0 6 6 9 14 6 7 -3 31 4 52 15 21 12 35 21 30 21 -5 0 -3 6 3 14 8 10 21 11 49
5 20 -4 64 -14 97 -21 l60 -14 13 -99 c32 -248 -17 -348 -201 -410 -160 -53
-510 -50 -623 7 -60 30 -56 41 6 15 38 -16 53 -18 62 -9 9 9 3 15 -26 27 -39
17 -44 38 -9 43 18 3 19 7 12 50 -5 26 -12 54 -16 62 -9 22 -9 19 -16 100 -4
41 -9 98 -12 125 -13 133 -33 186 -81 207 -35 16 -30 29 10 26 19 -1 32 -6 29
-11z m-248 -35 c14 -9 18 -62 4 -62 -5 0 -8 -4 -5 -9 3 -5 -1 -14 -9 -21 -8
-7 -12 -16 -9 -21 3 -5 1 -9 -5 -9 -6 0 -8 -6 -5 -14 3 -8 1 -17 -5 -21 -6 -3
-11 2 -11 12 -1 10 -9 43 -20 73 -18 51 -18 56 -3 68 19 13 52 16 68 4z m647
-124 c-7 -7 -12 -8 -12 -2 0 6 3 14 7 17 3 4 9 5 12 2 2 -3 -1 -11 -7 -17z"/>
<path d="M2016 2957 c3 -10 9 -15 12 -12 3 3 0 11 -7 18 -10 9 -11 8 -5 -6z"/>
<path d="M1940 1450 c0 -5 5 -10 11 -10 5 0 7 5 4 10 -3 6 -8 10 -11 10 -2 0
-4 -4 -4 -10z"/>
<path d="M2180 2030 c0 -5 5 -10 11 -10 5 0 7 5 4 10 -3 6 -8 10 -11 10 -2 0
-4 -4 -4 -10z"/>
<path d="M2190 1834 c-33 -23 -33 -24 -10 -24 43 0 71 12 68 28 -5 24 -20 23
-58 -4z"/>
<path d="M2260 1805 c0 -8 2 -15 4 -15 2 0 6 7 10 15 3 8 1 15 -4 15 -6 0 -10
-7 -10 -15z"/>
<path d="M2230 1790 c-9 -6 -10 -10 -3 -10 6 0 15 5 18 10 8 12 4 12 -15 0z"/>
<path d="M2288 1783 c-21 -5 -24 -43 -4 -43 8 0 21 8 28 19 7 10 16 18 20 17
3 0 9 1 12 4 6 7 -33 9 -56 3z"/>
<path d="M381 3344 c0 -11 3 -14 6 -6 3 7 2 16 -1 19 -3 4 -6 -2 -5 -13z"/>
<path d="M817 2559 c7 -7 15 -10 18 -7 3 3 -2 9 -12 12 -14 6 -15 5 -6 -5z"/>
<path d="M3595 2149 c-37 -23 -49 -24 -41 -3 12 31 -21 -4 -38 -40 -22 -48
-20 -102 9 -203 57 -196 97 -283 156 -341 49 -48 48 -29 -2 26 -37 42 -53 72
-96 180 -10 23 31 12 53 -15 18 -23 25 -26 36 -15 19 19 0 43 -55 69 -55 27
-75 54 -83 115 l-6 46 41 21 c24 11 48 18 54 15 7 -3 20 -22 29 -42 11 -24 29
-42 50 -51 18 -8 36 -16 41 -19 4 -2 7 4 7 13 0 14 3 15 15 5 12 -10 15 -9 15
4 0 9 -4 24 -9 34 -44 80 -71 148 -71 177 0 18 -4 37 -10 40 -5 3 -10 1 -10
-4 0 -6 -7 -11 -15 -11 -8 0 -15 5 -15 10 0 15 -21 11 -55 -11z"/>
<path d="M3992 2090 c0 -14 2 -19 5 -12 2 6 2 18 0 25 -3 6 -5 1 -5 -13z"/>
<path d="M1625 1750 c-3 -5 -1 -10 4 -10 6 0 11 5 11 10 0 6 -2 10 -4 10 -3 0
-8 -4 -11 -10z"/>
<path d="M3640 1671 c0 -5 7 -12 16 -15 14 -5 15 -4 4 9 -14 17 -20 19 -20 6z"/>
<path d="M3756 1665 c-3 -8 -12 -15 -21 -15 -8 0 -15 -7 -15 -15 0 -20 13 -19
32 3 23 26 30 42 20 42 -6 0 -12 -7 -16 -15z"/>
<path d="M1677 1620 c-3 -13 -10 -18 -21 -14 -9 3 -14 10 -11 14 3 5 -3 7 -12
5 -10 -2 -22 -4 -27 -4 -5 -1 -3 -7 4 -15 6 -8 19 -12 28 -9 12 3 14 2 4 -4
-8 -6 -10 -17 -6 -29 7 -19 7 -19 -14 0 -22 19 -22 19 -22 -7 0 -15 5 -27 10
-27 6 0 10 -5 10 -11 0 -6 -6 -9 -13 -6 -14 5 -54 -50 -43 -60 3 -3 -2 -11
-11 -18 -9 -7 -16 -26 -16 -43 0 -17 -5 -30 -11 -29 -6 1 -11 -7 -11 -18 0
-11 -3 -22 -6 -25 -3 -3 -32 -45 -65 -95 -59 -90 -59 -90 -61 -170 -1 -73 12
-135 28 -135 4 0 10 -12 14 -27 8 -35 32 -73 45 -73 14 0 12 21 -5 54 -8 15
-13 32 -10 36 3 4 -1 10 -9 13 -27 11 -38 165 -15 209 13 25 49 67 92 106 15
14 27 29 27 34 0 5 10 19 21 31 12 12 39 58 60 102 21 44 49 95 62 113 25 34
26 70 2 105 -12 17 -13 17 -18 -3z m3 -44 c0 -2 -7 -6 -15 -10 -8 -3 -15 -1
-15 4 0 6 7 10 15 10 8 0 15 -2 15 -4z m-120 -186 c0 -5 -2 -10 -4 -10 -3 0
-8 5 -11 10 -3 6 -1 10 4 10 6 0 11 -4 11 -10z"/>
<path d="M1182 1524 c-7 -8 -8 -14 -3 -14 10 0 25 19 20 25 -2 1 -10 -3 -17
-11z"/>
<path d="M1165 1490 c-3 -6 1 -7 9 -4 18 7 21 14 7 14 -6 0 -13 -4 -16 -10z"/>
<path d="M1142 1433 c-6 -2 -10 -9 -6 -14 3 -5 -1 -9 -9 -9 -8 0 -17 -8 -21
-17 -3 -10 -9 -24 -12 -31 -10 -21 42 31 55 56 6 12 10 22 9 21 -2 0 -9 -3
-16 -6z"/>
<path d="M3042 1194 c-7 -8 -8 -14 -3 -14 10 0 25 19 20 25 -2 1 -10 -3 -17
-11z"/>
<path d="M3012 1065 c1 -20 8 -41 14 -46 10 -8 12 1 11 35 -1 30 -7 46 -15 46
-8 0 -12 -12 -10 -35z"/>
<path d="M3051 994 c0 -11 3 -14 6 -6 3 7 2 16 -1 19 -3 4 -6 -2 -5 -13z"/>
<path d="M1916 961 c-3 -5 1 -11 9 -14 9 -4 12 -1 8 9 -6 16 -10 17 -17 5z"/>
<path d="M2263 883 c1 -10 6 -24 11 -31 4 -7 9 -25 11 -40 1 -14 8 -28 14 -30
6 -2 11 -10 11 -17 0 -8 12 -26 27 -40 15 -14 22 -25 15 -25 -6 0 -12 -5 -12
-11 0 -5 4 -8 8 -5 5 3 14 -3 22 -14 7 -10 19 -16 27 -13 7 3 13 1 13 -5 0 -5
9 -12 20 -15 14 -4 18 -10 13 -23 -6 -16 -7 -16 -14 2 -4 10 -8 15 -8 10 -1
-5 -8 -3 -16 4 -12 10 -18 8 -34 -11 l-18 -23 -8 23 c-5 18 -9 20 -21 10 -10
-8 -14 -8 -14 0 0 6 -10 11 -23 11 -13 0 -28 5 -35 12 -18 18 -40 -6 -23 -25
21 -27 221 -88 221 -68 0 5 9 11 20 14 10 3 19 2 18 -2 -4 -16 15 -51 27 -51
8 0 39 -11 70 -25 30 -13 57 -24 60 -25 2 -1 17 -7 32 -15 19 -10 29 -11 34
-3 4 6 9 3 13 -8 7 -22 86 -50 111 -40 9 3 13 2 10 -4 -6 -9 41 -35 58 -32 4
1 7 -3 7 -8 0 -6 6 -10 14 -10 8 0 16 -7 20 -15 3 -8 12 -12 21 -9 9 4 15 0
15 -9 0 -24 156 -85 186 -73 7 3 16 -4 19 -15 5 -15 37 -27 48 -17 1 2 16 -7
34 -20 17 -12 34 -22 38 -22 6 0 49 -32 80 -59 6 -5 26 -32 45 -60 l35 -51 63
2 c46 1 62 5 62 15 0 8 -4 11 -10 8 -5 -3 -10 -2 -10 4 0 5 -11 22 -25 37 -14
15 -25 33 -25 40 0 8 -6 14 -13 14 -7 0 -24 10 -37 23 -14 12 -27 22 -30 22
-20 1 -168 85 -191 109 -22 23 -29 26 -29 13 0 -21 2 -20 -50 -2 -24 8 -45 13
-47 11 -3 -2 -54 20 -114 50 -60 29 -131 61 -159 70 -28 9 -53 20 -55 25 -3 4
-12 6 -20 2 -8 -3 -15 0 -15 7 0 6 -5 8 -10 5 -6 -4 -18 -1 -27 7 -9 7 -19 12
-22 12 -13 -3 -51 16 -51 26 0 5 -16 16 -35 24 -19 8 -35 20 -35 26 0 6 -4 9
-9 5 -5 -3 -13 0 -16 6 -4 5 -14 8 -22 5 -8 -3 -12 -2 -9 3 6 9 -22 37 -33 34
-3 0 -5 4 -3 9 2 6 -4 8 -13 4 -9 -3 -14 -2 -11 3 5 7 -70 102 -96 121 -3 3
-25 40 -48 83 -40 73 -63 98 -57 60z"/>
<path d="M1360 696 c0 -2 8 -10 18 -17 15 -13 16 -12 3 4 -13 16 -21 21 -21
13z"/>
<path d="M1435 575 c1 -13 10 -35 19 -49 9 -14 16 -31 16 -38 0 -7 13 -40 29
-73 43 -88 83 -187 86 -212 2 -15 -4 -23 -20 -27 -31 -8 -87 -55 -79 -67 3 -5
1 -8 -4 -7 -9 3 -142 -89 -142 -98 0 -2 120 -4 268 -4 l267 0 -35 21 c-19 12
-47 30 -62 40 -14 10 -32 20 -39 21 -18 4 -49 31 -49 42 0 5 -6 17 -14 25 -21
25 -106 189 -106 207 0 24 -83 183 -96 184 -6 0 -18 7 -25 17 -13 15 -12 15 9
4 22 -11 22 -11 10 8 -19 31 -37 34 -33 6z"/>
<path d="M1716 483 c15 -27 39 -66 53 -88 42 -65 52 -86 81 -165 17 -47 33
-76 43 -78 15 -3 16 5 13 65 -5 86 -19 111 -109 206 -40 42 -71 77 -69 77 3 0
-1 7 -8 15 -27 33 -30 12 -4 -32z"/>
<path d="M3287 514 c-3 -3 -37 -6 -76 -7 -67 -2 -90 -12 -91 -38 0 -11 42 -19
103 -19 44 0 56 -3 51 -12 -6 -9 -3 -9 9 0 12 11 20 11 34 2 17 -11 17 -11 0
-6 -11 4 -16 2 -12 -5 4 -6 14 -8 22 -5 19 8 64 -4 58 -14 -3 -5 3 -6 12 -4
46 10 113 10 113 0 0 -6 5 -3 11 7 8 14 24 17 82 17 45 0 78 -5 86 -12 11 -11
12 -10 6 1 -6 11 -4 13 11 7 10 -5 30 -10 44 -11 14 -2 25 -4 25 -5 0 -1 20
-3 45 -4 25 -2 61 -6 80 -9 25 -5 41 -2 58 11 l23 18 -28 2 c-15 1 -41 6 -58
12 -61 19 -290 42 -340 34 -16 -3 -51 -6 -76 -8 -25 -2 -51 -6 -57 -10 -6 -3
-17 1 -25 9 -9 8 -22 15 -31 15 -8 0 -21 6 -28 13 -16 16 -44 27 -51 21z"/>
</g>
</svg>
